<?xml version="1.0" encoding="UTF-8" standalone="no"?>
<!-- Created with Inkscape (http://www.inkscape.org/) -->

<svg
   xmlns:dc="http://purl.org/dc/elements/1.1/"
   xmlns:cc="http://creativecommons.org/ns#"
   xmlns:rdf="http://www.w3.org/1999/02/22-rdf-syntax-ns#"
   xmlns:svg="http://www.w3.org/2000/svg"
   xmlns="http://www.w3.org/2000/svg"
   xmlns:sodipodi="http://sodipodi.sourceforge.net/DTD/sodipodi-0.dtd"
   xmlns:inkscape="http://www.inkscape.org/namespaces/inkscape"
   id="svg4392"
   version="1.1"
   inkscape:version="0.48.5 r10040"
   width="698.57507"
   height="87.537872"
   xml:space="preserve"
   sodipodi:docname="Logo Architekten Ronacher.pdf"><metadata
     id="metadata4398"><rdf:RDF><cc:Work
         rdf:about=""><dc:format>image/svg+xml</dc:format><dc:type
           rdf:resource="http://purl.org/dc/dcmitype/StillImage" /><dc:title></dc:title></cc:Work></rdf:RDF></metadata><defs
     id="defs4396"><clipPath
       clipPathUnits="userSpaceOnUse"
       id="clipPath4408"><path
         d="m 0,260 595,0 0,321 -595,0 0,-321 z"
         id="path4410"
         inkscape:connector-curvature="0" /></clipPath><clipPath
       clipPathUnits="userSpaceOnUse"
       id="clipPath4540"><path
         d="m 525.2839,321.377 c 0.0225,-0.5204 0.0374,-1.0408 0.1722,-1.535 0.1423,-0.5541 0.4231,-1.0782 0.7862,-1.5312 0.2995,-0.3931 0.6589,-0.7301 1.0708,-0.9959 0.4343,-0.2957 0.9247,-0.5016 1.4339,-0.6477 0.6177,-0.1872 1.2542,-0.2808 1.9019,-0.3107 0.7038,-0.0412 1.4114,-0.007 2.0928,0.1685 0.6439,0.1535 1.2504,0.438 1.7858,0.8311 0.4006,0.2845 0.7638,0.6327 1.0296,1.0408 0.307,0.453 0.5017,0.9921 0.6065,1.535 0.0973,0.4792 0.131,0.9622 0.1572,1.4451 l 0,9.4121 -11.0369,0 0,-9.4121"
         id="path4542"
         inkscape:connector-curvature="0" /></clipPath><clipPath
       clipPathUnits="userSpaceOnUse"
       id="clipPath4546"><path
         d="m 0,260 595,0 0,321 -595,0 0,-321 z"
         id="path4548"
         inkscape:connector-curvature="0" /></clipPath><clipPath
       clipPathUnits="userSpaceOnUse"
       id="clipPath4558"><path
         d="m 0,260 595,0 0,321 -595,0 0,-321 z"
         id="path4560"
         inkscape:connector-curvature="0" /></clipPath></defs><sodipodi:namedview
     pagecolor="#ffffff"
     bordercolor="#666666"
     borderopacity="1"
     objecttolerance="10"
     gridtolerance="10"
     guidetolerance="10"
     inkscape:pageopacity="0"
     inkscape:pageshadow="2"
     inkscape:window-width="1676"
     inkscape:window-height="1005"
     id="namedview4394"
     showgrid="false"
     fit-margin-top="20"
     fit-margin-left="20"
     fit-margin-right="20"
     fit-margin-bottom="20"
     inkscape:zoom="1.7723197"
     inkscape:cx="334.37107"
     inkscape:cy="-42.989156"
     inkscape:window-x="4"
     inkscape:window-y="0"
     inkscape:window-maximized="1"
     inkscape:current-layer="g4400" /><g
     id="g4400"
     inkscape:groupmode="layer"
     inkscape:label="Logo Architekten Ronacher"
     transform="matrix(1.25,0,0,-1.25,-22.361912,670.63262)"><g
       id="g4402" /><path
       d="m 295.5899,482.8914 c 1.8307,0 2.879,1.0445 2.879,2.6656 l 0,0.6253 -4.9232,0 0,12.0402 4.7136,0 5.496,-9.8426 c 2.4073,-4.2867 4.706,-5.9041 9.6217,-5.9041 3.085,0 4.9157,1.0408 4.9157,3.0812 l 0,0.4156 -1.0445,0 c -1.8832,0 -3.2946,0.8386 -4.867,3.2459 l -6.7428,10.6214 c 4.6013,1.7259 7.7386,5.1254 7.7386,10.2582 0,6.9074 -5.5409,10.408 -13.4966,10.408 l -16.3196,0 c -1.2579,0 -2.4597,-0.8387 -2.4597,-2.6657 l 0,-0.6252 4.0808,0 0,-31.0329 -1.6211,0 c -1.4638,0 -2.4597,-1.0446 -2.4597,-2.6657 l 0,-0.6252 14.4888,0 z m -2.0442,18.9852 0,15.3386 4.0846,0 c 5.496,0 7.1733,-2.8266 7.1733,-7.1171 0,-3.7177 -1.0483,-6.7539 -3.875,-8.2215 l -7.3829,0 z m 42.7513,-19.4008 c 10.2545,0 16.5816,4.912 16.5816,13.0736 0,9.004 -6.3271,13.916 -16.5816,13.916 -10.2058,0 -16.5329,-4.912 -16.5329,-13.4967 0,-8.5809 6.3271,-13.4929 16.5329,-13.4929 z m 0,2.8678 c -4.2942,0 -7.7461,3.246 -7.7461,10.6251 0,7.3792 3.4519,10.6251 7.7461,10.6251 4.2905,0 7.7985,-3.2459 7.7985,-10.6251 0,-7.3791 -3.508,-10.6251 -7.7985,-10.6251 z m 49.962,-2.8678 0,23.3318 0.8386,0 c 1.4114,0 2.8229,0.9922 2.8229,2.6133 l 0,0.6252 -10.6139,0 c -1.8308,0 -2.8266,-1.0446 -2.8266,-2.6619 l 0,-0.5766 5.496,0 0,-12.7142 -15.5446,15.9527 -7.162,0 c -1.4152,0 -2.8266,-1.0446 -2.8266,-2.6619 l 0,-0.5766 3.6615,0 0,-19.6253 -0.8349,0 c -1.4152,0 -2.8266,-1.0446 -2.8266,-2.6619 l 0,-0.629 10.6139,0 c 1.8344,0 2.879,1.0445 2.879,2.6656 l 0,0.6253 -5.5484,0 0,15.2824 18.2139,-18.9889 3.6578,0 z m 13.6052,0.4156 c 1.8345,0 2.879,1.0445 2.879,2.6656 l 0,0.6253 -3.5042,0 0,0.3669 1.5162,3.7214 10.3593,0 1.4115,-3.7214 0,-0.3669 -1.2018,0 c -1.4639,0 -2.879,-1.0446 -2.879,-2.6619 l 0,-0.629 13.081,0 c 1.8308,0 2.8791,1.0445 2.8791,2.6656 l 0,0.6253 -3.6129,0 -9.0489,22.8638 -6.7502,0 -10.3593,-22.8638 -0.6814,0 c -1.4638,0 -2.8753,-1.0446 -2.8753,-2.6619 l 0,-0.629 8.7869,0 z m 6.1212,20.4528 3.8749,-10.0448 -7.9033,0 4.0284,10.0448 z m 35.2636,-20.8684 c 6.5405,0 10.4117,2.8716 10.4117,5.7469 0,0.9434 -0.4194,1.4151 -0.8387,1.6211 l -0.4193,0 c -1.2018,-1.2542 -3.8711,-2.6694 -7.952,-2.6694 -5.1253,0 -8.5809,3.0887 -8.5809,9.4233 0,6.5405 3.2459,9.9961 8.1616,9.9961 2.2501,0 3.8749,-0.6289 5.1291,-1.2055 l 1.6211,-4.5001 0.8387,0 c 1.8831,0 3.0325,1.7783 3.0325,3.6652 l 0,4.912 -1.6211,0 -2.2501,-1.2542 -0.4193,0 c -1.8307,0.629 -3.4518,1.2542 -6.5405,1.2542 -9.1538,0 -16.7351,-5.1216 -16.7351,-13.4967 0,-8.1653 6.1174,-13.4929 16.1623,-13.4929 z m 48.2922,0.4156 c 1.8307,0 2.8228,1.0445 2.8228,2.6656 l 0,0.6253 -4.0808,0 0,19.6253 1.258,0 c 1.8307,0 2.8228,0.9922 2.8228,2.6133 l 0,0.6252 -13.0736,0 c -1.4114,0 -2.8266,-1.0446 -2.8266,-2.6619 l 0,-0.5766 3.8749,0 0,-7.8022 -12.3023,0 0,7.8022 1.4638,0 c 1.8345,0 2.8266,0.9922 2.8266,2.6133 l 0,0.6252 -13.0736,0 c -1.4152,0 -2.8266,-1.0446 -2.8266,-2.6619 l 0,-0.5766 3.6615,0 0,-19.6253 -0.8349,0 c -1.4152,0 -2.8266,-1.0446 -2.8266,-2.6619 l 0,-0.629 13.0736,0 c 1.8345,0 2.8266,1.0445 2.8266,2.6656 l 0,0.6253 -4.2904,0 0,8.5884 12.3023,0 0,-8.5884 -1.0483,0 c -1.4114,0 -2.8266,-1.0446 -2.8266,-2.6619 l 0,-0.629 13.0774,0 z m 31.9127,-0.4156 1.258,8.5772 -1.258,0 c -1.5163,0 -2.6656,-0.4155 -3.2422,-1.4114 l -2.0404,-3.4593 -8.4237,0 0,7.7498 5.5447,0 c 1.8831,0 2.879,0.9921 2.879,2.8715 l 0,0.7862 -8.4237,0 0,8.2178 8.2141,0 1.8307,-4.9194 0.7862,0 c 1.8832,0 2.8753,2.0404 2.8753,3.6652 l 0,4.912 -1.6211,0 -2.25,-0.4193 -18.6183,0 c -1.4152,0 -2.8266,-1.0446 -2.8266,-2.6619 l 0,-0.5766 3.6615,0 0,-19.6253 -0.8349,0 c -1.4152,0 -2.8266,-1.0446 -2.8266,-2.6619 l 0,-0.629 21.4449,0 2.879,-0.4156 0.9921,0 z m 17.6336,0.4156 c 1.8345,0 2.8791,1.0445 2.8791,2.6656 l 0,0.6253 -3.9273,0 0,6.1287 4.2942,0 4.2942,-5.3425 c 3.1898,-3.7102 4.7061,-4.4927 8.7831,-4.4927 3.5043,0 5.3388,1.2542 5.3388,2.6657 l 0,0.4193 -1.0483,0 c -1.8307,0 -3.2946,0.6814 -4.6536,2.25 l -5.7506,6.3272 c 4.4926,1.2018 6.7427,3.8711 6.7427,7.1695 0,4.7622 -4.1819,7.7386 -11.8194,7.7386 l -14.9643,0 c -1.4114,0 -2.8228,-1.0446 -2.8228,-2.6619 l 0,-0.5766 3.6615,0 0,-19.6253 -0.8387,0 c -1.4114,0 -2.8228,-1.0446 -2.8228,-2.6619 l 0,-0.629 12.6542,0 z m -1.0482,12.6543 0,10.2619 3.2983,0 c 4.7136,0 6.754,-1.7783 6.754,-4.7098 0,-2.4597 -0.6253,-4.0845 -3.2984,-5.5521 l -6.7539,0"
       style="fill:#565354;fill-opacity:1;fill-rule:nonzero;stroke:none"
       id="path4412"
       inkscape:connector-curvature="0" /><path
       d="m 41.63934,482.4945 c 2.73677,0 5.67196,1.1906 6.81385,2.3325 l 0.29576,0 c 0.49794,-1.4901 2.28376,-2.3325 3.97225,-2.3325 1.19429,0 2.5346,0.1985 3.27963,0.3969 l 0,3.1261 -1.73716,0 c -1.54247,0 -1.93932,0.3482 -1.93932,2.2875 l 0,15.1627 c -0.54661,1.9393 -3.07746,4.6686 -8.54726,4.6686 -3.08121,0 -5.81798,-0.7937 -7.55513,-1.5387 l 0,-3.5267 0.39685,0 c 1.53873,0.7974 3.87865,1.5911 6.21482,1.5911 3.87866,0 5.42113,-1.1943 5.42113,-4.2755 l 0,-3.1374 -3.68023,0 c -5.07294,0 -10.685,-2.1302 -10.685,-7.5513 0,-5.0693 3.47431,-7.2033 7.74981,-7.2033 z m -3.68023,7.4017 c 0,3.2834 2.9352,4.2792 6.417,4.2792 l 3.87865,0 0,-6.2186 c -1.14562,-1.1942 -3.68023,-2.3361 -5.61955,-2.3361 -2.73677,0 -4.6761,1.1419 -4.6761,4.2755 z m 26.44297,-7.0048 0,18.2439 c 1.54247,1.9356 3.47805,2.3362 5.41738,2.3362 l 3.13362,0 0,3.8711 c -0.79744,0.3969 -1.54247,0.3969 -2.33618,0.3969 -1.93932,0 -4.2755,-0.7937 -5.81797,-3.0775 l -0.39685,0 0,3.4743 -1.14188,0 -2.92771,-0.7937 0,-24.4512 4.06959,0 z m 23.11466,-0.3969 c 1.73716,0 5.0692,0.3969 7.40538,1.5388 l 0,3.5267 -0.39685,0 c -1.59115,-0.7974 -3.87865,-1.5425 -6.61168,-1.5425 -4.87078,0 -8.551,3.0812 -8.551,9.6967 0,5.8179 4.07707,8.9478 8.94785,8.9478 2.33618,0 4.82211,-0.3968 6.01266,-1.1905 l 0.40059,0 0,3.4743 c -1.59114,0.7937 -4.07707,1.1905 -6.41325,1.1905 -6.8101,0 -13.21586,-4.268 -13.21586,-12.819 0,-8.5547 5.61206,-12.8228 12.42216,-12.8228 z m 33.15196,0.3969 0,14.7621 c 0,3.0812 -0.745,5.4174 -1.9356,7.0085 -1.7371,2.2838 -4.6723,3.0775 -6.9598,3.0775 -2.3362,0 -5.0692,-0.7937 -7.0123,-2.3325 l -0.3968,0 0,14.7584 -1.1419,0 -2.9277,-0.7937 0,-36.4803 4.0696,0 0,19.0376 c 1.9393,1.5425 3.6802,2.3362 6.0164,2.3362 2.5383,0 4.0808,-0.7937 5.0729,-2.3362 0.7488,-1.1943 1.1456,-2.733 1.1456,-5.4661 l 0,-13.5715 4.0696,0 z m 9.3485,31.8603 c 1.5387,0 2.5308,1.1419 2.5308,2.6807 0,1.5911 -0.9921,2.733 -2.5308,2.733 -1.5425,0 -2.5346,-1.1419 -2.5346,-2.733 0,-1.5388 0.9921,-2.6807 2.5346,-2.6807 z m 1.9318,-31.8603 0,25.2449 -1.1381,0 -2.9277,-0.7937 0,-24.4512 4.0658,0 z m 15.5595,-0.3969 c 1.5388,0 3.4781,0.3969 4.6237,1.1906 l 0,3.4743 -0.3482,0 c -1.1943,-0.7937 -2.3361,-1.1419 -3.5304,-1.1419 -1.9394,0 -3.0812,0.7451 -3.0812,3.4818 l 0,14.369 6.9598,0 0,3.4743 -6.9598,0 0,6.6079 -1.1906,0 -2.879,-0.7937 0,-5.8142 -3.8787,0 0,-3.4743 3.8787,0 0,-15.9115 c 0,-3.5267 2.4822,-5.4623 6.4057,-5.4623 z m 19.3371,0 c 1.9394,0 5.073,0 7.8023,1.5388 l 0,3.5267 -0.3969,0 c -2.3324,-1.1943 -4.2717,-1.5425 -6.6079,-1.5425 -5.2227,0 -8.3563,3.085 -8.3563,9.2998 l 0,0.0524 16.3045,0.5429 c 0.1984,1.1419 0.3969,2.879 0.3969,4.0733 0,4.6761 -3.2759,8.1504 -9.1426,8.1504 -6.4132,0 -11.8269,-4.6686 -11.8269,-12.819 0,-8.1579 4.6687,-12.8228 11.8269,-12.8228 z m -7.2107,15.9489 0.0525,0.3482 c 0.745,3.8824 3.6802,5.8704 7.1582,5.8704 3.1337,0 5.073,-1.5911 5.073,-5.0729 l 0,-0.5991 -12.2837,-0.5466 z m 41.2575,-15.552 0,0.3968 -10.0897,13.7663 9.6891,9.8875 0,0.4006 -4.4739,0 -9.0939,-9.6929 -1.1943,0 0,22.5157 -1.1419,0 -2.9277,-0.7937 0,-36.4803 4.0696,0 0,11.6285 1.9393,0 8.3489,-11.6285 4.8745,0 z m 12.1751,-0.3969 c 1.5424,0 3.478,0.3969 4.6237,1.1906 l 0,3.4743 -0.3482,0 c -1.1943,-0.7937 -2.3362,-1.1419 -3.5305,-1.1419 -1.9393,0 -3.0812,0.7451 -3.0812,3.4818 l 0,14.369 6.9599,0 0,3.4743 -6.9599,0 0,6.6079 -1.1906,0 -2.879,-0.7937 0,-5.8142 -3.8749,0 0,-3.4743 3.8749,0 0,-15.9115 c 0,-3.5267 2.4822,-5.4623 6.4058,-5.4623 z m 19.3408,0 c 1.9393,0 5.0692,0 7.7985,1.5388 l 0,3.5267 -0.3969,0 c -2.3324,-1.1943 -4.2717,-1.5425 -6.6079,-1.5425 -5.2227,0 -8.3526,3.085 -8.3526,9.2998 l 0,0.0524 16.3009,0.5429 c 0.1984,1.1419 0.3968,2.879 0.3968,4.0733 0,4.6761 -3.2759,8.1504 -9.1388,8.1504 -6.417,0 -11.8306,-4.6686 -11.8306,-12.819 0,-8.1579 4.6686,-12.8228 11.8306,-12.8228 z m -7.2107,15.9489 0.0487,0.3482 c 0.745,3.8824 3.6802,5.8704 7.162,5.8704 3.1299,0 5.0692,-1.5911 5.0692,-5.0729 l 0,-0.5991 -12.2799,-0.5466 z m 42.3956,-15.552 0,14.7621 c 0,3.0812 -0.745,5.4174 -1.9356,7.0085 -1.7371,2.2838 -4.6686,3.0775 -6.9561,3.0775 -2.3399,0 -5.0729,-0.7937 -7.0122,-2.3325 l -0.3969,0 0,2.7293 -1.1419,0 -2.9277,-0.7937 0,-24.4512 4.0696,0 0,19.0338 c 1.9393,1.5463 3.6802,2.34 6.0164,2.34 2.5346,0 4.0771,-0.7937 5.0729,-2.3362 0.7451,-1.1943 1.1419,-2.733 1.1419,-5.4661 l 0,-13.5715 4.0696,0"
       style="fill:#cba569;fill-opacity:1;fill-rule:nonzero;stroke:none"
       id="path4414"
       inkscape:connector-curvature="0" /></g></svg>